<?xml version="1.0" encoding="UTF-8"?>
<svg version="1.1" xmlns="http://www.w3.org/2000/svg" width="2000" height="1500">
<path d="M0 0 C660 0 1320 0 2000 0 C2000 495 2000 990 2000 1500 C1340 1500 680 1500 0 1500 C0 1005 0 510 0 0 Z " fill="#111111" transform="translate(0,0)"/>
<path d="M0 0 C5.03558432 4.25112052 8.20147221 9.73929902 9.33283925 16.26635563 C9.5147639 19.11887327 9.5420555 21.93132386 9.50991821 24.78944397 C9.51771817 25.86969595 9.52551812 26.94994793 9.53355443 28.06293482 C9.55339624 31.65957896 9.53773947 35.25515584 9.52197266 38.85180664 C9.52875215 41.4396374 9.53765713 44.02746333 9.54852295 46.61528015 C9.57069102 52.90026445 9.56598335 59.18494926 9.55145974 65.46994502 C9.54014302 70.57978008 9.53864708 75.68953152 9.54407883 80.79937553 C9.54484499 81.5281175 9.54561116 82.25685946 9.54640054 83.00768451 C9.54799925 84.48834561 9.54962032 85.96900669 9.5512635 87.44966774 C9.56550188 101.31523609 9.54915785 115.18063882 9.52226166 129.04618 C9.49991986 140.93166705 9.50380911 152.81690992 9.52685547 164.70239258 C9.55363923 178.52170482 9.56413371 192.34087216 9.54879415 206.16020674 C9.54720149 207.63495121 9.54562963 209.10969571 9.54407883 210.58444023 C9.54330745 211.30994906 9.54253607 212.03545788 9.54174132 212.78295182 C9.53743238 217.88445623 9.54469332 222.98586836 9.55647659 228.08735847 C9.5719991 234.95840461 9.56087975 241.82898272 9.53200531 248.6999836 C9.52540039 251.21985611 9.52728189 253.73976748 9.53831863 256.25962448 C9.55200776 259.70278431 9.53481481 263.14447325 9.50991821 266.58753967 C9.52107182 267.58171325 9.53222543 268.57588683 9.54371703 269.60018688 C9.4404627 276.97573791 7.48847711 282.73900721 2.3970114 288.21445328 C-3.8958899 293.78808102 -9.63341468 293.91718645 -17.64347839 293.89242554 C-18.71466913 293.89695665 -19.78585987 293.90148776 -20.88951093 293.90615618 C-24.48522215 293.91883412 -28.08078255 293.91717759 -31.67651367 293.91552734 C-34.25212805 293.92151054 -36.82774062 293.9283156 -39.40335083 293.93588257 C-45.67790256 293.95248908 -51.95241671 293.957992 -58.22698858 293.95910732 C-63.32928741 293.96005816 -68.43157387 293.96417027 -73.53386879 293.97050858 C-88.00744767 293.98812168 -102.48099691 293.99734759 -116.95458659 293.99584763 C-117.73471217 293.99576772 -118.51483776 293.9956878 -119.31860352 293.99560547 C-120.09968459 293.99552371 -120.88076566 293.99544195 -121.68551586 293.99535771 C-134.33671908 293.99454526 -146.98780312 294.01367236 -159.63897189 294.0418822 C-172.63658959 294.0706352 -185.63414922 294.0844211 -198.63179952 294.08269465 C-205.92591688 294.08203148 -213.21990937 294.08749141 -220.51399803 294.10905075 C-227.37668697 294.12920521 -234.23910844 294.1285641 -241.10181046 294.11401749 C-243.61804527 294.11192695 -246.13429654 294.11664479 -248.65050316 294.1287384 C-252.09117875 294.14420158 -255.53094698 294.13487436 -258.97160339 294.11947632 C-259.96238378 294.12976344 -260.95316417 294.14005057 -261.97396821 294.15064943 C-269.41346216 294.07730714 -276.73998506 292.73428582 -282.37890625 287.5546875 C-283.02666016 286.53761719 -283.02666016 286.53761719 -283.6875 285.5 C-284.14253906 284.81679687 -284.59757813 284.13359375 -285.06640625 283.4296875 C-290.44551684 274.25939565 -286.62808747 259.70203712 -285.125 249.625 C-285.02848145 248.93986328 -284.93196289 248.25472656 -284.83251953 247.54882812 C-275.78541866 183.78830769 -242.32071936 115.91957564 -192 74.1953125 C-190.67361046 73.08446126 -189.38472563 71.92810108 -188.125 70.7421875 C-144.82593712 29.99897208 -86.47464578 6.25885244 -28.125 -1.375 C-27.43752686 -1.4685376 -26.75005371 -1.5620752 -26.04174805 -1.65844727 C-7.0182411 -4.17332595 -7.0182411 -4.17332595 0 0 Z " fill="#FEFEFE" transform="translate(887.125,770.375)"/>
<path d="M0 0 C17.48290533 -0.97422471 17.48290533 -0.97422471 24.12060547 4.13916016 C29.6761718 10.69549825 30.39461651 15.71345017 30.32667542 24.09751892 C30.33362094 25.1922474 30.34056647 26.28697588 30.34772247 27.41487795 C30.36599944 31.078307 30.35572566 34.74108901 30.34545898 38.40454102 C30.35251705 41.03295883 30.36126159 43.66137258 30.37156677 46.28977966 C30.3931866 52.68508568 30.3930851 59.08021361 30.38494123 65.47554415 C30.37863614 70.67460165 30.37978291 75.8736073 30.3862133 81.07266426 C30.38711496 81.81320286 30.38801661 82.55374146 30.38894559 83.31672062 C30.39079683 84.82122005 30.39265939 86.32571946 30.39453315 87.83021886 C30.41110465 101.9322537 30.40239804 116.03418843 30.38554757 130.13621724 C30.37085188 143.03117566 30.38547823 155.92590104 30.41431773 168.82082944 C30.4437269 182.0693805 30.45467956 195.31782405 30.44513553 208.56640631 C30.44411301 210.06561345 30.4431184 211.56482061 30.44215202 213.06402779 C30.44167563 213.80161873 30.44119924 214.53920967 30.44070842 215.29915185 C30.43854625 220.48976376 30.44833784 225.68027367 30.46292305 230.87086296 C30.48229316 237.86168124 30.47534082 244.85205941 30.45072365 251.84285927 C30.4457107 254.40830646 30.44921791 256.97378658 30.4618721 259.53920746 C30.47778281 263.04197282 30.46286774 266.54330751 30.44020081 270.04600525 C30.45203653 271.06070182 30.46387226 272.0753984 30.47606665 273.12084335 C30.38960225 279.69970165 29.04556484 284.03646003 24.81201172 289.13525391 C20.58877902 293.04946958 16.97230511 295.38016853 11.15950489 295.39810944 C10.22354097 295.40579173 9.28757705 295.41347402 8.32325059 295.4213891 C7.29826689 295.41965614 6.27328319 295.41792317 5.21723938 295.4161377 C4.12577974 295.42207994 3.0343201 295.42802218 1.90978593 295.4341445 C-1.76045019 295.45153659 -5.43055598 295.45453649 -9.10083008 295.45751953 C-11.72718078 295.46677464 -14.35352879 295.47682379 -16.97987366 295.48760986 C-24.12463449 295.51476608 -31.26937285 295.52682456 -38.4141767 295.53563118 C-42.8767321 295.54115833 -47.33927884 295.54963351 -51.80182838 295.55863953 C-64.16080907 295.58302451 -76.51978282 295.60362255 -88.87878704 295.61038971 C-90.06515995 295.61104841 -90.06515995 295.61104841 -91.27549999 295.61172041 C-92.46469178 295.61237525 -92.46469178 295.61237525 -93.67790765 295.61304331 C-95.28437658 295.61393024 -96.89084552 295.61482336 -98.49731445 295.61572266 C-99.29417641 295.61616552 -100.09103837 295.61660838 -100.91204766 295.61706465 C-113.81947104 295.624958 -126.7266684 295.65985796 -139.6340045 295.7064417 C-152.89035906 295.75389825 -166.14660031 295.77879478 -179.40304118 295.78112555 C-186.84420983 295.78295754 -194.28508406 295.79442324 -201.72617149 295.83076477 C-208.06356675 295.86160712 -214.40057665 295.87178458 -220.73803272 295.85528857 C-223.96980873 295.84748871 -227.20064912 295.85254755 -230.4323616 295.87740326 C-233.94167272 295.9028092 -237.44900012 295.89111028 -240.95829773 295.87023926 C-242.47904287 295.89440847 -242.47904287 295.89440847 -244.03051013 295.91906595 C-251.20777655 295.81938853 -255.74683023 293.82665352 -261.18798828 289.13525391 C-263.16064453 286.71337891 -263.16064453 286.71337891 -264.25048828 284.38525391 C-264.63333984 283.62728516 -265.01619141 282.86931641 -265.41064453 282.08837891 C-274.68601317 246.85130005 -251.05097821 192.31911078 -235.18798828 161.13525391 C-234.78257812 160.33667969 -234.37716797 159.53810547 -233.95947266 158.71533203 C-220.728646 133.05489081 -203.10592905 108.1326007 -182.18798828 88.13525391 C-179.66464177 85.62853571 -177.16023409 83.10672156 -174.68017578 80.55712891 C-168.51912906 74.2673439 -162.15494996 68.54111662 -155.18798828 63.13525391 C-154.61483887 62.68569336 -154.04168945 62.23613281 -153.45117188 61.77294922 C-119.873551 35.5257166 -81.70665197 16.99456088 -40.37548828 6.69775391 C-39.70384644 6.53008514 -39.03220459 6.36241638 -38.34020996 6.18966675 C-25.62994754 3.04486156 -13.06354423 0.80754335 0 0 Z " fill="#FEFEFE" transform="translate(530.18798828125,431.86474609375)"/>
<path d="M0 0 C1.39367269 -0.00668677 1.39367269 -0.00668677 2.81550038 -0.01350862 C3.84310093 -0.01332426 4.87070149 -0.01313989 5.92944145 -0.01294994 C7.55900066 -0.01846498 7.55900066 -0.01846498 9.22148025 -0.02409142 C12.88641691 -0.035164 16.55132526 -0.03897816 20.21627617 -0.04278088 C22.83410038 -0.04904287 25.45192369 -0.05568943 28.06974602 -0.0626936 C35.9444327 -0.08247003 43.8191207 -0.09252664 51.69382602 -0.10142139 C55.40163654 -0.10580319 59.10944563 -0.11117035 62.81725502 -0.11641026 C75.14270354 -0.13342528 87.46815116 -0.14791885 99.79360962 -0.155159 C102.99325499 -0.15706892 106.19290036 -0.15898924 109.3925457 -0.16094494 C110.18781036 -0.16142868 110.98307502 -0.16191242 111.8024386 -0.16241082 C124.6815054 -0.1707088 137.56047925 -0.19604054 150.43950547 -0.22852562 C163.66075438 -0.26160203 176.88195607 -0.27960836 190.10324657 -0.28280324 C197.52702016 -0.28496802 204.95065829 -0.29371174 212.37439156 -0.31926441 C219.35931689 -0.34325093 226.34399478 -0.34679338 233.32895279 -0.33650303 C235.89279363 -0.33600663 238.45664632 -0.34235755 241.02045059 -0.35605907 C244.52108799 -0.37372034 248.0208448 -0.36669909 251.52148247 -0.35352612 C252.53569869 -0.36449536 253.54991492 -0.37546461 254.59486496 -0.38676625 C261.3812313 -0.3251284 267.06780628 0.77062306 272.12903035 5.58153456 C275.76454529 9.7555126 277.85398756 13.23316995 277.86368179 18.77390385 C277.87013069 19.70700107 277.87657958 20.64009829 277.88322389 21.60147119 C277.87857809 23.13413349 277.87857809 23.13413349 277.87383842 24.69775867 C277.87836954 25.78584033 277.88290065 26.87392198 277.88756907 27.99497581 C277.90026468 31.65373833 277.89858935 35.31235298 277.89694023 38.97113514 C277.9029223 41.58925538 277.9097271 44.20737386 277.91729546 46.82549 C277.93391237 53.20712473 277.93940534 59.58872251 277.94052021 65.97037706 C277.9414705 71.15852929 277.94557985 76.34666932 277.95192146 81.5348177 C277.96953692 96.24578607 277.97876003 110.95672526 277.97726052 125.66770425 C277.9771806 126.46086867 277.97710069 127.25403309 277.97701836 128.0712328 C277.97693659 128.86536645 277.97685483 129.6595001 277.97677059 130.47769842 C277.97595794 143.34371084 277.99508956 156.20960613 278.02329509 169.07558468 C278.05203105 182.28786329 278.06583495 195.50008478 278.06410754 208.71239543 C278.06344381 216.12942401 278.06892837 223.54632984 278.09046364 230.96333027 C278.11059079 237.94008624 278.10999438 244.916579 278.09543037 251.89334774 C278.09333673 254.45396077 278.09807609 257.01458987 278.11015129 259.57517529 C278.12557036 263.07133898 278.11631638 266.56660476 278.10088921 270.06274891 C278.1163199 271.58202689 278.1163199 271.58202689 278.13206232 273.13199735 C278.07253304 279.23876431 277.24734369 284.09996536 273.60641289 289.13422108 C269.04247832 293.33991463 264.04441323 295.99446497 257.72360039 296.25140858 C200.66328994 291.98907213 146.41692719 272.62777793 100.60641289 238.13422108 C100.02939629 237.70141834 99.45237968 237.26861561 98.85787773 236.82269764 C91.02000733 230.90593746 83.67303339 224.61273264 76.54391289 217.86078358 C74.56413816 215.99147406 72.53455766 214.22487526 70.42672539 212.50140858 C68.18361981 210.61869116 66.34065069 208.86937034 64.48141289 206.63422108 C61.94371221 203.64217224 59.31567986 200.77873078 56.59713554 197.95013905 C42.92502842 183.58838092 31.72656404 167.13260153 21.60641289 150.13422108 C20.9516497 149.04125721 20.9516497 149.04125721 20.28365898 147.92621326 C3.62710676 119.85648811 -9.35410831 86.64433956 -14.05130196 54.22845936 C-14.41279779 52.01668239 -14.89641179 49.85860358 -15.40921211 47.67718983 C-16.47456836 43.02217768 -17.04614133 38.38191392 -17.51858711 33.63422108 C-17.6049543 32.84402576 -17.69132149 32.05383045 -17.78030586 31.23968983 C-19.56470845 13.93381709 -19.56470845 13.93381709 -14.39358711 7.13422108 C-9.97647183 3.11866173 -6.06634271 0.01346186 0 0 Z " fill="#FEFEFE" transform="translate(282.39358711242676,772.8657789230347)"/>
<path d="M0 0 C2.27469693 0.5213349 4.5553969 0.99946582 6.84033203 1.47363281 C67.4499111 14.66924033 127.80963176 54.29248853 165.30517578 103.52832031 C166.09794922 104.52734375 166.89072266 105.52636719 167.70751953 106.55566406 C201.74947923 149.61125372 225.72858419 204.38592461 229.30517578 259.52832031 C229.37309326 260.56303467 229.37309326 260.56303467 229.44238281 261.61865234 C230.27411001 276.37049998 230.27411001 276.37049998 225.30517578 282.52832031 C221.93171705 286.02805825 218.04596864 289.21163852 213.10557532 289.78247064 C212.30034816 289.78442157 211.495121 289.78637249 210.66549301 289.78838253 C209.26584718 289.79898092 209.26584718 289.79898092 207.83792567 289.80979341 C206.30526337 289.80617079 206.30526337 289.80617079 204.74163818 289.80247498 C203.65355653 289.80771165 202.56547488 289.81294833 201.44442105 289.8183437 C197.78566445 289.83338735 194.12704717 289.83404982 190.46826172 289.8347168 C187.85014102 289.84233537 185.23202256 289.85076234 182.61390686 289.85993958 C175.4919335 289.88278944 168.36998993 289.89071025 161.24798489 289.89576602 C156.80017846 289.89902323 152.35238069 289.90554587 147.90457916 289.91276741 C135.5876277 289.93233376 123.27068428 289.94873762 110.95371628 289.95164394 C109.77141744 289.9519253 109.77141744 289.9519253 108.56523378 289.95221234 C106.96738672 289.95257859 105.36953966 289.95294228 103.7716926 289.95330345 C102.97852819 289.95348626 102.18536377 289.95366907 101.36816406 289.95385742 C100.17696358 289.95412825 100.17696358 289.95412825 98.96169844 289.95440454 C86.09566119 289.95794571 73.22979137 289.98496431 60.36381218 290.02235531 C47.15153295 290.06044512 33.93933678 290.07980147 20.72700143 290.08010346 C13.30993944 290.0806879 5.89307715 290.08917103 -1.52393341 290.11810112 C-8.50072891 290.14518911 -15.47712289 290.14651406 -22.45395088 290.13044548 C-25.01456882 290.12862704 -27.57520925 290.13535704 -30.13577843 290.15126419 C-33.6321066 290.17166011 -37.12704203 290.1612089 -40.62335205 290.14305115 C-42.14263003 290.1628511 -42.14263003 290.1628511 -43.69260049 290.18305105 C-51.055069 290.09574469 -55.99753498 288.20377285 -61.25289464 282.97945207 C-64.67613979 279.06806328 -65.81781327 276.07894846 -65.8290453 270.97486401 C-65.83350314 270.03555764 -65.83796098 269.09625128 -65.84255391 268.12848109 C-65.84236955 267.09464724 -65.84218519 266.06081339 -65.84199524 264.99565125 C-65.84567193 263.89884578 -65.84934862 262.80204032 -65.85313672 261.67199832 C-65.86419513 257.97786075 -65.86802104 254.28375128 -65.87182617 250.58959961 C-65.8780891 247.94867789 -65.88472275 245.3077592 -65.89173889 242.6668396 C-65.91149998 234.72880606 -65.92156842 226.79077126 -65.93046668 218.85271928 C-65.9348496 215.1152653 -65.94021634 211.37781274 -65.94545555 207.64035988 C-65.9624664 195.21793124 -65.97696136 182.79550349 -65.98420429 170.37306499 C-65.9861142 167.14950751 -65.98803454 163.92595003 -65.98999023 160.70239258 C-65.99071584 159.50058507 -65.99071584 159.50058507 -65.99145611 158.27449862 C-65.99975939 145.29068027 -66.02510195 132.30695396 -66.05757091 119.32317581 C-66.09062801 105.99568375 -66.10865177 92.6682385 -66.11184853 79.34070522 C-66.11401473 71.85664811 -66.12277953 64.37272529 -66.14830971 56.88870811 C-66.16999821 50.5161324 -66.17807628 44.14372358 -66.16834293 37.77111515 C-66.16379292 34.51964843 -66.16789911 31.26859873 -66.18510437 28.01716423 C-66.202718 24.4917966 -66.19576816 20.96730754 -66.18257141 17.44194031 C-66.19354066 16.41479862 -66.2045099 15.38765694 -66.21581155 14.32938975 C-66.152965 7.39260284 -65.01346742 3.94652281 -60.13232422 -1.08105469 C-44.91348822 -13.15687021 -17.53080024 -4.08892378 0 0 Z " fill="#FEFEFE" transform="translate(672.69482421875,439.4716796875)"/>
<path d="M0 0 C83.74874372 0 83.74874372 0 104 10 C105.46566406 10.67675781 105.46566406 10.67675781 106.9609375 11.3671875 C118.58845457 17.13209092 126.75265838 25.7440138 133 37 C133.5775 37.969375 134.155 38.93875 134.75 39.9375 C142.24027805 58.28868123 140.99106945 80.07550155 133.6796875 98.2890625 C126.66820794 113.42313039 115.09787232 124.08014185 100 131 C99.34 131 98.68 131 98 131 C105.98648652 145.38081173 114.09385312 159.67648556 122.4140625 173.8671875 C126.89193239 181.50852766 131.29947708 189.19021462 135.71289062 196.86889648 C139.57419293 203.57243258 143.48413924 210.241203 147.5637207 216.81469727 C150 220.78867235 150 220.78867235 150 223 C137.13 223 124.26 223 111 223 C97.43489883 197.73167428 97.43489883 197.73167428 91.3828125 186.2734375 C90.99967896 185.54810822 90.61654541 184.82277893 90.22180176 184.07546997 C88.67995893 181.1559042 87.13839269 178.23619322 85.59777832 175.315979 C80.50602125 165.66805314 75.36013765 156.05648578 69.99511719 146.55664062 C67 141.20804606 67 141.20804606 67 139 C55.78 139 44.56 139 33 139 C33 166.72 33 194.44 33 223 C22.11 223 11.22 223 0 223 C0 149.41 0 75.82 0 0 Z " fill="#FDFDFD" transform="translate(1306,811)"/>
<path d="M0 0 C2.313797 0.19046021 2.313797 0.19046021 5 1 C6.5969696 3.11837769 6.5969696 3.11837769 7.97924805 5.95263672 C8.77113777 7.54227737 8.77113777 7.54227737 9.57902527 9.16403198 C10.13431412 10.3241983 10.68960297 11.48436462 11.26171875 12.6796875 C11.85673305 13.8890884 12.4534284 15.09766353 13.05171204 16.30545044 C14.63040863 19.50293252 16.1876459 22.71040083 17.74017334 25.9206543 C19.28622661 29.11017983 20.8491326 32.2913982 22.41210938 35.47265625 C23.02519768 36.72078443 23.63827553 37.96891775 24.25134277 39.21705627 C24.55256546 39.83019747 24.85378815 40.44333866 25.16413879 41.07505989 C26.07512263 42.9315295 26.98363738 44.78919105 27.89172363 46.64707947 C31.63395753 54.29332582 35.49279949 61.86426645 39.49488831 69.37748718 C44.03174906 77.900708 48.32587971 86.5426064 52.625 95.1875 C53.42688839 96.79632114 54.22897165 98.40504517 55.03125 100.01367188 C56.21814027 102.39353981 57.40446822 104.77367674 58.58868408 107.15487671 C60.42137132 110.83961226 62.26021213 114.52081224 64.12011719 118.19189453 C68.67051912 127.18755772 72.9197938 136.282282 77 145.5 C77.58951078 146.82436701 78.17935382 148.14858618 78.76953125 149.47265625 C80.18348783 152.64675758 81.59305696 155.82278249 83 159 C87.05683372 151.10110611 90.9574487 143.15203967 94.61134338 135.05805969 C103.40574092 115.6408352 113.07536281 96.65515812 122.65240479 77.6161499 C126.82705382 69.3158208 130.99503931 61.01214701 135.16015625 52.70703125 C135.82243666 51.38699286 135.82243666 51.38699286 136.49809647 50.04028702 C142.40392862 38.26357271 148.22627073 26.45654601 153.84155273 14.5378418 C156.14662971 9.65118026 158.56536532 4.8231605 161 0 C162.32 0 163.64 0 165 0 C167.53094337 9.63002007 169.61262063 19.34013017 171.67190552 29.07943726 C174.53983585 42.63817856 177.46138138 56.18012479 180.5625 69.6875 C183.20723438 81.23944235 185.64053996 92.82455682 188 104.4375 C191.50037071 121.6637849 195.1822445 138.84102152 199 156 C199.24040009 157.08054657 199.24040009 157.08054657 199.48565674 158.18292236 C200.33450763 161.99751029 201.18383766 165.81199147 202.03320312 169.62646484 C204.88425654 182.43225527 207.72855145 195.23920461 210.5 208.0625 C210.75531494 209.23393555 211.01062988 210.40537109 211.27368164 211.61230469 C211.61774048 213.21380371 211.61774048 213.21380371 211.96875 214.84765625 C212.26942383 216.2399646 212.26942383 216.2399646 212.57617188 217.66040039 C213 220 213 220 213 223 C201.78 223 190.56 223 179 223 C178.154375 218.854375 177.30875 214.70875 176.4375 210.4375 C174.2383868 199.74300673 171.92554363 189.08309113 169.5 178.4375 C165.43761429 160.59624108 161.56223361 142.7204474 157.91796875 124.7890625 C157.73851212 123.90760559 157.55905548 123.02614868 157.37416077 122.11798096 C156.48248311 117.73660495 155.5950006 113.35445735 154.71508789 108.97070312 C154.38830911 107.35804748 154.06141036 105.74541613 153.734375 104.1328125 C153.58876633 103.39962799 153.44315765 102.66644348 153.2931366 101.91104126 C152.46014633 97.82507499 151.40493714 93.9262838 150 90 C149.7097998 90.79768799 149.41959961 91.59537598 149.12060547 92.41723633 C142.46451334 110.55100349 135.01112284 127.6625406 125.79101562 144.671875 C122.74749929 150.32743862 119.81842551 156.04190775 116.875 161.75 C112.09772677 170.97110986 107.30194292 180.18246183 102.49462891 189.38793945 C96.64821606 200.58422319 90.8243544 211.79222942 85 223 C84.01 223 83.02 223 82 223 C75.00228166 209.65575734 68.07284982 196.27746491 61.1875 182.875 C55.76319047 172.31789057 50.33833347 161.76111393 44.88900757 151.21688843 C43.94370737 149.38701596 42.99979151 147.55643372 42.0559082 145.72583008 C39.58968084 140.95275625 37.12406113 136.18410028 34.52734375 131.48046875 C26.99287343 117.80007099 21.07715288 103.37021394 15 89 C11.05555439 107.35951709 7.17049489 125.72229954 3.75 144.1875 C0.55438206 161.43640177 -2.9292767 178.62507282 -6.4375 195.8125 C-6.57553543 196.48887386 -6.71357086 197.16524773 -6.85578918 197.86211777 C-8.56630855 206.2422794 -10.28251362 214.62126102 -12 223 C-23.22 223 -34.44 223 -46 223 C-42.18581042 200.2510836 -42.18581042 200.2510836 -40.0625 191.625 C-38.39960486 184.86610947 -36.97268029 178.07874278 -35.625 171.25 C-33.81365267 162.07409578 -31.96329722 152.90782665 -30.0625 143.75 C-29.68569092 141.93387207 -29.68569092 141.93387207 -29.30126953 140.08105469 C-28.78977437 137.61714107 -28.27805495 135.153274 -27.76611328 132.68945312 C-26.25402495 125.4075287 -24.74910084 118.12411988 -23.24365234 110.84082031 C-22.03538919 104.99710671 -20.82444984 99.15398798 -19.60546875 93.3125 C-16.47485267 78.28532548 -13.43963886 63.24080632 -10.4375 48.1875 C-5.30956927 22.48729594 -5.30956927 22.48729594 -3 11.3125 C-2.80462646 10.35819092 -2.60925293 9.40388184 -2.40795898 8.4206543 C-1.11983664 2.23967328 -1.11983664 2.23967328 0 0 Z " fill="#FDFDFD" transform="translate(1520,811)"/>
<path d="M0 0 C2.23388672 0.01123047 2.23388672 0.01123047 5 1 C6.68147579 3.61883035 7.97236687 6.01343548 9.2578125 8.8203125 C9.64261276 9.62210938 10.02741302 10.42390625 10.4238739 11.25 C11.67494194 13.86713664 12.8998882 16.49562665 14.125 19.125 C14.98356625 20.93293906 15.84384278 22.74006691 16.70581055 24.54638672 C18.79346981 28.92979583 20.86219084 33.32181661 22.925354 37.71679688 C24.7779718 41.65288631 26.66337871 45.57296048 28.54833984 49.49365234 C29.81540349 52.1310436 31.07449445 54.77211719 32.33203125 57.4140625 C35.52958482 64.12148314 38.76601068 70.8101011 42 77.5 C46.18484917 86.15802706 50.35745465 94.82162481 54.5 103.5 C58.62269636 112.13621304 62.77383708 120.75847991 66.9375 129.375 C72.82366684 141.55661153 78.68701399 153.74902817 84.53662109 165.94824219 C86.5063275 170.05590487 88.47671773 174.16323891 90.44775391 178.27026367 C91.4336156 180.32486923 92.41897484 182.37971597 93.40380859 184.43481445 C95.8295312 189.49352835 98.26319465 194.54815738 100.71607971 199.59375 C101.93381628 202.09906884 103.14883707 204.6057009 104.36380005 207.11236572 C105.23574494 208.90814161 106.11185722 210.70189208 106.98803711 212.49560547 C107.51276611 213.5785791 108.03749512 214.66155273 108.578125 215.77734375 C109.04637695 216.73890381 109.51462891 217.70046387 109.99707031 218.69116211 C111 221 111 221 111 223 C98.13 223 85.26 223 72 223 C67.61713705 213.60815081 63.25518879 204.22559264 59.0625 194.75 C58.32290039 193.10064453 58.32290039 193.10064453 57.56835938 191.41796875 C57.10365234 190.36738281 56.63894531 189.31679688 56.16015625 188.234375 C55.53572632 186.83010254 55.53572632 186.83010254 54.89868164 185.39746094 C54 183 54 183 54 180 C19.68 180 -14.64 180 -50 180 C-50.99 182.97 -51.98 185.94 -53 189 C-54.15849707 191.79439044 -55.33738783 194.55804236 -56.57421875 197.31640625 C-56.86607056 197.97572144 -57.15792236 198.63503662 -57.45861816 199.31433105 C-58.53041319 201.73238651 -59.60935248 204.14727026 -60.6875 206.5625 C-64.3071875 214.6990625 -64.3071875 214.6990625 -68 223 C-80.54 223 -93.08 223 -106 223 C-103.75048757 216.25146271 -103.75048757 216.25146271 -102.23510742 213.18310547 C-101.89629547 212.49198669 -101.55748352 211.80086792 -101.20840454 211.08880615 C-100.66245132 209.98910492 -100.66245132 209.98910492 -100.10546875 208.8671875 C-99.722164 208.0866803 -99.33885925 207.3061731 -98.94393921 206.50201416 C-98.12223497 204.82892471 -97.2990076 203.15658261 -96.47439575 201.48492432 C-90.36494281 189.09448029 -84.31589705 176.68532708 -78.5625 164.125 C-72.80868983 151.58163754 -66.75345091 139.19483124 -60.67849731 126.80474854 C-55.50675928 116.25194964 -50.39807027 105.68319263 -45.5 95 C-39.77236884 82.50745015 -33.74299023 70.17182599 -27.69232178 57.83340454 C-21.69350595 45.59535211 -15.80292608 33.31987769 -10.1328125 20.92578125 C-6.90252342 13.87298343 -3.51068387 6.9175696 0 0 Z " fill="#FCFCFC" transform="translate(1177,811)"/>
<path d="M0 0 C34.65 0 69.3 0 105 0 C105 9.9 105 19.8 105 30 C81.57 30 58.14 30 34 30 C34 50.79 34 71.58 34 93 C52.15 93 70.3 93 89 93 C89 102.9 89 112.8 89 123 C70.85 123 52.7 123 34 123 C34 156 34 189 34 223 C22.78 223 11.56 223 0 223 C0 149.41 0 75.82 0 0 Z " fill="#FCFCFC" transform="translate(979,811)"/>
<path d="M0 0 C48.54434647 0 48.54434647 0 62.9375 11.5625 C72.45130204 21.11140832 73.53519578 29.6850535 73.57055664 42.63891602 C73.3166935 53.58106845 69.8712934 64.10581656 61.99609375 72.01171875 C44.09245036 86.77661965 22.49523881 84 0 84 C0 56.28 0 28.56 0 0 Z " fill="#121212" transform="translate(1339,839)"/>
<path d="M0 0 C3.09140554 1.54570277 3.45700668 4.02022288 4.7734375 7.171875 C5.18752869 8.15266022 5.18752869 8.15266022 5.60998535 9.15325928 C6.21629315 10.59005416 6.81977499 12.02804392 7.4208374 13.46704102 C9.06729562 17.40640794 10.73627491 21.33618092 12.40625 25.265625 C12.76476044 26.10988037 13.12327087 26.95413574 13.49264526 27.82397461 C19.01791103 40.78988362 24.80852468 53.64020665 30.56005859 66.50683594 C30.98097778 67.44964417 31.40189697 68.39245239 31.83557129 69.36383057 C32.62918581 71.14094065 33.42412099 72.91746174 34.22058105 74.69329834 C34.5730188 75.48222473 34.92545654 76.27115112 35.28857422 77.08398438 C35.59640839 77.77117554 35.90424255 78.4583667 36.22140503 79.16638184 C36.89241771 80.74663999 37.45709358 82.37128073 38 84 C13.25 84 -11.5 84 -37 84 C-36.10293333 79.51466667 -34.94873671 76.39568426 -33.03515625 72.296875 C-32.73001602 71.63774109 -32.42487579 70.97860718 -32.11048889 70.29949951 C-31.44682615 68.86623804 -30.78094271 67.43400323 -30.11309814 66.00268555 C-28.30092752 62.11704136 -26.50662078 58.2232077 -24.71484375 54.328125 C-24.33622192 53.50521973 -23.9576001 52.68231445 -23.56750488 51.83447266 C-18.13592615 39.98602306 -12.9585801 28.02389184 -7.76586914 16.06933594 C-7.39505722 15.21849426 -7.0242453 14.36765259 -6.64219666 13.49102783 C-5.94632135 11.89412144 -5.25286903 10.29615619 -4.56227112 8.69696045 C-3.21508812 5.60774144 -1.87460028 2.81190042 0 0 Z " fill="#131313" transform="translate(1179,876)"/>
</svg>
